<?xml version="1.0" encoding="UTF-8" standalone="no"?>
<!-- Generator: Adobe Illustrator 16.0.0, SVG Export Plug-In . SVG Version: 6.00 Build 0)  -->

<svg
   xmlns:dc="http://purl.org/dc/elements/1.1/"
   xmlns:cc="http://creativecommons.org/ns#"
   xmlns:rdf="http://www.w3.org/1999/02/22-rdf-syntax-ns#"
   xmlns:svg="http://www.w3.org/2000/svg"
   xmlns="http://www.w3.org/2000/svg"
   xmlns:sodipodi="http://sodipodi.sourceforge.net/DTD/sodipodi-0.dtd"
   xmlns:inkscape="http://www.inkscape.org/namespaces/inkscape"
   version="1.1"
   id="Capa_1"
   x="0px"
   y="0px"
   width="21.664px"
   height="21.665px"
   viewBox="0 0 21.664 21.665"
   style="enable-background:new 0 0 21.664 21.665;"
   xml:space="preserve"
   sodipodi:docname="hot-coffee-rounded-cup-on-a-plate-from-side-view.svg"
   inkscape:version="0.92.3 (2405546, 2018-03-11)"><metadata
   id="metadata49"><rdf:RDF><cc:Work
       rdf:about=""><dc:format>image/svg+xml</dc:format><dc:type
         rdf:resource="http://purl.org/dc/dcmitype/StillImage" /></cc:Work></rdf:RDF></metadata><defs
   id="defs47" /><sodipodi:namedview
   pagecolor="#ffffff"
   bordercolor="#666666"
   borderopacity="1"
   objecttolerance="10"
   gridtolerance="10"
   guidetolerance="10"
   inkscape:pageopacity="0"
   inkscape:pageshadow="2"
   inkscape:window-width="1920"
   inkscape:window-height="1025"
   id="namedview45"
   showgrid="false"
   inkscape:zoom="21.78629"
   inkscape:cx="4.8836477"
   inkscape:cy="15.196919"
   inkscape:window-x="0"
   inkscape:window-y="27"
   inkscape:window-maximized="1"
   inkscape:current-layer="Capa_1" />
<g
   id="g12"
   transform="translate(-1.8409705e-4,-4.4599995)">
	<g
   id="g10">
		<path
   d="m 2.756,20.725 h 2.95 c 0.041,0.257 0.254,0.458 0.523,0.458 h 6.707 c 0.27,0 0.482,-0.2 0.523,-0.458 h 2.95 c 0.499,0 0.903,-0.404 0.903,-0.903 H 1.854 c 0,0.499 0.404,0.903 0.902,0.903 z"
   id="path2"
   inkscape:connector-curvature="0" />
		<path
   d="m 20.865,11.444 c -0.752,-0.609 -1.811,-0.619 -2.508,-0.542 0.02,-0.486 0.031,-0.983 0.031,-1.5 H 0 c 0,4.97 0.752,8.556 5.511,9.894 h 7.366 c 1.885,-0.529 3.135,-1.418 3.964,-2.6 1.806,-0.035 4.711,-0.746 4.82,-3.24 0.047,-1.092 -0.407,-1.698 -0.796,-2.012 z m -3.267,3.826 c 0.346,-0.889 0.551,-1.889 0.664,-2.988 0.488,-0.08 1.329,-0.131 1.754,0.215 0.078,0.064 0.321,0.262 0.293,0.901 -0.057,1.292 -1.661,1.726 -2.711,1.872 z"
   id="path4"
   inkscape:connector-curvature="0" />
		
		
	</g>
</g>
<g
   id="g14">
</g>
<g
   id="g16">
</g>
<g
   id="g18">
</g>
<g
   id="g20">
</g>
<g
   id="g22">
</g>
<g
   id="g24">
</g>
<g
   id="g26">
</g>
<g
   id="g28">
</g>
<g
   id="g30">
</g>
<g
   id="g32">
</g>
<g
   id="g34">
</g>
<g
   id="g36">
</g>
<g
   id="g38">
</g>
<g
   id="g40">
</g>
<g
   id="g42">
</g>
</svg>