<?xml version="1.0" encoding="utf-8"?>
<!-- Generator: Adobe Illustrator 16.0.0, SVG Export Plug-In . SVG Version: 6.00 Build 0)  -->
<!DOCTYPE svg PUBLIC "-//W3C//DTD SVG 1.1//EN" "http://www.w3.org/Graphics/SVG/1.1/DTD/svg11.dtd">
<svg version="1.1" id="Layer_1" xmlns="http://www.w3.org/2000/svg" xmlns:xlink="http://www.w3.org/1999/xlink" x="0px" y="0px"
	 width="512px" height="512px" viewBox="0 0 512 512" enable-background="new 0 0 512 512" xml:space="preserve">
<g>
	<path d="M342.02,222.885c14.999,24.405,23.823,53.006,23.823,83.691c0,88.446-71.947,160.398-160.406,160.398
		c-88.46,0-160.407-71.952-160.407-160.398c0-88.45,71.947-160.411,160.407-160.411c30.672,0,59.286,8.815,83.683,23.814
		l24.502-24.507c-30.952-20.844-68.161-33.026-108.185-33.026c-107.03,0-194.123,87.087-194.123,194.13
		c0,107.039,87.093,194.114,194.123,194.114c107.029,0,194.122-87.075,194.122-194.114c0-40.028-12.184-77.256-33.023-108.189
		L342.02,222.885z"/>
	<path d="M259.882,199.193c-16.365-8.338-34.835-13.146-54.445-13.146c-66.465,0-120.512,54.064-120.512,120.529
		c0,66.447,54.047,120.507,120.512,120.507s120.529-54.06,120.529-120.507c0-19.615-4.809-38.089-13.17-54.478l-25.813,25.813
		c3.19,9.017,5.268,18.574,5.268,28.664c0,47.854-38.956,86.791-86.813,86.791c-47.858,0-86.796-38.938-86.796-86.791
		c0-47.867,38.938-86.813,86.796-86.813c10.094,0,19.643,2.067,28.646,5.244L259.882,199.193z"/>
	<path d="M216.058,257.563c0.014-0.771,0.197-1.513,0.261-2.278c-3.524-0.743-7.146-1.16-10.882-1.16
		c-28.958,0-52.438,23.493-52.438,52.451c0,28.953,23.479,52.429,52.438,52.429c28.957,0,52.438-23.476,52.438-52.429
		c0-3.745-0.427-7.39-1.155-10.914c-0.771,0.063-1.513,0.247-2.27,0.266l-27.102,27.105c-5.134,5.103-11.932,7.912-19.161,7.912
		c-7.211,0-14.027-2.81-19.198-7.953c-10.571-10.571-10.571-27.784,0-38.378L216.058,257.563z"/>
	<path d="M500.35,84.713c-0.756-2.319-2.764-3.993-5.171-4.355l-55.184-7.719l-8.348-55.812c-0.38-2.414-2.044-4.415-4.363-5.188
		c-0.66-0.222-1.349-0.33-2.008-0.33c-1.696,0-3.36,0.677-4.58,1.902l-59.465,59.449c-1.448,1.441-2.108,3.491-1.811,5.499
		l5.794,39.554L238.662,244.27c-5.318,5.317-6.785,12.771-5.038,19.578l-32.717,32.685c-4.016,4.03-4.016,10.521,0,14.541
		c2.026,2.008,4.662,3.012,7.279,3.012c2.631,0,5.268-1.004,7.275-3.012l32.698-32.707c1.811,0.472,3.653,0.71,5.496,0.71
		c5.106,0,10.177-1.829,14.064-5.739l126.553-126.546l39.561,5.803c0.299,0.039,0.629,0.064,0.927,0.064
		c1.71,0,3.355-0.674,4.574-1.894l59.434-59.474C500.515,89.569,501.139,87.034,500.35,84.713z"/>
</g>
</svg>
